<?xml version="1.0" encoding="UTF-8"?>
<!DOCTYPE svg PUBLIC "-//W3C//DTD SVG 1.1//EN" "http://www.w3.org/Graphics/SVG/1.1/DTD/svg11.dtd">
<!-- Creator: CorelDRAW X7 -->
<svg xmlns="http://www.w3.org/2000/svg" xml:space="preserve" width="800px" height="640px" version="1.1" style="shape-rendering:geometricPrecision; text-rendering:geometricPrecision; image-rendering:optimizeQuality; fill-rule:evenodd; clip-rule:evenodd"
viewBox="0 0 800 640"
 xmlns:xlink="http://www.w3.org/1999/xlink">
 <defs>
  <style type="text/css">
   <![CDATA[
    .fil3 {fill:#FEFEFE;fill-rule:nonzero}
    .fil1 {fill:url(#id0)}
    .fil0 {fill:url(#id1)}
    .fil2 {fill:url(#id2)}
   ]]>
  </style>
  <linearGradient id="id0" gradientUnits="userSpaceOnUse" x1="494.879" y1="117.095" x2="505.127" y2="356.863">
   <stop offset="0" style="stop-opacity:1; stop-color:#8E2929"/>
   <stop offset="1" style="stop-opacity:1; stop-color:#ED3237"/>
  </linearGradient>
  <linearGradient id="id1" gradientUnits="userSpaceOnUse" xlink:href="#id0" x1="305.115" y1="117.095" x2="294.869" y2="356.863">
  </linearGradient>
  <linearGradient id="id2" gradientUnits="userSpaceOnUse" x1="407.5" y1="24.0154" x2="392.495" y2="375.094">
   <stop offset="0" style="stop-opacity:1; stop-color:#ED3237"/>
   <stop offset="1" style="stop-opacity:1; stop-color:#8E2929"/>
  </linearGradient>
 </defs>
 <g id="Layer_x0020_1">
  <metadata id="CorelCorpID_0Corel-Layer"/>
  <g id="_327816288">
   <g>
    <polygon class="fil0" points="380,359 220,200 304,115 "/>
    <polygon class="fil1" points="420,359 580,200 496,115 "/>
    <polygon class="fil2" points="400,20 484,104 400,379 316,104 "/>
   </g>
   <path class="fil3" d="M88 534l9 0 34 -92 -11 0 -27 78 -27 -78 -11 0 33 92zm48 -1l56 0 0 -9 -47 0 0 -32 42 0 0 -9 -42 0 0 -32 47 0 0 -9 -56 0 0 91zm87 0l10 0 0 -37 33 -54 -12 0 -26 44 -25 -44 -12 0 32 54 0 37zm36 -11c10,8 20,13 32,13 8,0 15,-3 21,-7 5,-5 8,-11 8,-18l0 -1c0,-6 -2,-11 -6,-15 -4,-4 -10,-8 -20,-11 -8,-3 -14,-6 -17,-9 -3,-3 -4,-6 -4,-10l0 0c0,-4 1,-8 5,-10 3,-3 7,-5 12,-5 8,0 15,3 22,9l6 -7c-8,-7 -17,-11 -27,-11 -8,0 -15,3 -20,7 -6,5 -8,11 -8,18l0 0c0,6 2,11 6,15 4,4 11,8 20,12 8,2 14,5 17,8 2,3 4,6 4,10l0 0c0,5 -2,8 -5,11 -4,3 -8,5 -14,5 -9,0 -17,-4 -26,-12l-6 8zm76 -72l6 8c6,-6 14,-9 22,-9 8,0 15,3 20,10 5,6 8,14 9,24l-68 0c-1,1 -1,2 -1,4l0 1c0,14 4,25 11,34 8,8 17,13 29,13 12,0 21,-5 29,-14 7,-8 10,-19 10,-33l0 -1c0,-14 -3,-25 -10,-34 -8,-8 -17,-13 -29,-13 -11,0 -20,3 -28,10zm8 66c-5,-6 -9,-14 -9,-24l58 0c0,10 -3,18 -9,24 -5,7 -12,10 -20,10 -8,0 -15,-3 -20,-10zm68 17l52 0 0 -9 -43 0 0 -82 -9 0 0 91zm60 -11c7,8 17,13 29,13 11,0 21,-5 28,-14 7,-8 11,-19 11,-33l0 -1c0,-14 -4,-25 -11,-34 -7,-8 -17,-13 -28,-13 -12,0 -21,5 -29,14 -7,8 -11,20 -11,33l0 1c0,14 4,25 11,34zm50 -7c-6,7 -13,11 -21,11 -9,0 -16,-4 -21,-11 -6,-7 -9,-16 -9,-27l0 -1c0,-11 3,-20 9,-27 5,-7 12,-11 21,-11 8,0 15,4 21,11 5,7 8,16 8,27l0 1c0,11 -3,20 -8,27zm50 -85c3,2 7,4 12,4 5,0 9,-2 12,-4 3,-2 5,-6 5,-10l-7 0c-1,4 -5,6 -10,6 -6,0 -9,-2 -10,-6l-8 0c1,4 2,8 6,10zm-16 92c7,8 17,13 30,13 11,0 21,-4 30,-11l0 -39 -33 0 0 8 23 0 0 26c-6,5 -12,7 -20,7 -9,0 -17,-4 -22,-11 -6,-7 -9,-16 -9,-27l0 -1c0,-11 3,-20 9,-27 5,-7 13,-11 21,-11 9,0 16,3 23,9l5 -8c-8,-6 -17,-10 -27,-10 -12,0 -22,5 -30,14 -7,8 -11,20 -11,33l0 1c0,14 3,25 11,34zm69 11l53 0 0 -9 -43 0 0 -82 -10 0 0 91zm64 -7c6,6 14,9 24,9 10,0 18,-3 24,-9 6,-7 9,-16 9,-27l0 -57 -10 0 0 57c0,9 -2,16 -6,20 -4,5 -10,7 -17,7 -7,0 -13,-3 -17,-7 -4,-5 -6,-12 -6,-20l0 -57 -10 0 0 57c0,12 3,20 9,27zm-326 90l-7 -6c4,-6 6,-12 6,-20l0 -1c0,-8 -2,-15 -7,-21 -4,-5 -10,-8 -17,-8 -8,0 -14,3 -18,8 -5,6 -7,13 -7,21l0 1c0,9 2,15 7,21 4,5 10,8 18,8 5,0 10,-2 15,-5l6 6 4 -4zm-15 -6c-3,2 -6,4 -10,4 -6,0 -10,-3 -13,-7 -4,-4 -6,-10 -6,-17l0 -1c0,-7 2,-12 5,-17 4,-4 8,-6 14,-6 5,0 9,2 13,6 3,5 5,11 5,17l0 1c0,6 -1,11 -4,16l-9 -9 -4 4 9 9zm19 8l7 0 0 -22 13 0 14 22 7 0 -15 -23c9,-2 14,-8 14,-17l0 0c0,-5 -2,-9 -5,-12 -3,-3 -8,-5 -15,-5l-20 0 0 57zm7 -28l0 -23 13 0c4,0 7,1 10,3 2,2 3,5 3,8l0 1c0,3 -1,6 -3,8 -3,2 -6,3 -11,3l-12 0zm43 24c4,3 8,5 15,5 6,0 11,-2 15,-6 3,-4 5,-9 5,-16l0 -36 -6 0 0 36c0,5 -1,10 -4,12 -2,3 -6,5 -10,5 -5,0 -8,-2 -11,-5 -2,-3 -4,-7 -4,-12l0 -36 -6 0 0 36c0,7 2,13 6,17zm42 4l6 0 0 -20 11 0c6,0 11,-2 14,-5 4,-3 6,-8 6,-14l0 0c0,-5 -1,-10 -5,-13 -4,-3 -9,-5 -15,-5l-17 0 0 57zm6 -25l0 -26 11 0c4,0 8,1 10,3 3,2 4,5 4,9l0 1c0,3 -1,7 -4,9 -2,2 -6,4 -10,4l-11 0z"/>
  </g>
 </g>
</svg>
